<svg xmlns="http://www.w3.org/2000/svg" width="303" height="49" viewBox="0 0 303 49"><g><g clip-path="url(#clip-3F7CEA06-9C5C-A27C-ADC8-1ECB1071F498)"><path fill="#fff" d="M1.062 49.1H27.82v-5.78H9.7c-4.41-.398 12.668-20.005 20.425-24.796 1.014-.627 2.32.109 2.32 1.3v29.277h25.83V.54C20.886 6.887 2.862 40.014.066 47.669a1.063 1.063 0 0 0 .996 1.432"></path></g><g><path fill="#fff" d="M133.36 10.86c0-.825.107-1.62.32-2.387.215-.765.528-1.479.94-2.14a8.558 8.558 0 0 1 1.517-1.809 9.257 9.257 0 0 1 2.048-1.4c.766-.389 1.612-.69 2.538-.904.926-.213 1.921-.32 2.987-.32.685 0 1.34.042 1.966.128.627.085 1.216.204 1.768.356a12.359 12.359 0 0 1 2.813 1.149l-1.004 1.96a8.09 8.09 0 0 0-1.487-.531 6.88 6.88 0 0 0-1.733-.215c-.802 0-1.545.142-2.23.43a5.145 5.145 0 0 0-1.773 1.226 5.707 5.707 0 0 0-1.172 1.919c-.285.75-.427 1.592-.427 2.525 0 .926.14 1.764.42 2.514a5.75 5.75 0 0 0 1.161 1.926 5.128 5.128 0 0 0 1.762 1.236c.681.292 1.419.437 2.212.437.56 0 1.12-.067 1.68-.204a7.73 7.73 0 0 0 1.54-.542l1.004 1.96c-.38.225-.805.434-1.272.63a13.248 13.248 0 0 1-3.267.876c-.623.085-1.276.127-1.96.127-1.595 0-3.033-.235-4.313-.706-1.279-.47-2.366-1.112-3.26-1.925a8.383 8.383 0 0 1-2.06-2.846 8.503 8.503 0 0 1-.718-3.47"></path></g><g><path fill="#fff" d="M161.918 4.842h-7.338V2.17H176v2.672h-7.338V19.52h-6.744z"></path></g><g><path fill="#fff" d="M180.37 2.18h6.756l-.01 17.336h-6.746z"></path></g><g><path fill="#fff" d="M192 10.86c0-.825.107-1.62.321-2.387a8.16 8.16 0 0 1 .94-2.14 8.542 8.542 0 0 1 1.517-1.809 9.232 9.232 0 0 1 2.047-1.4c.766-.389 1.612-.69 2.538-.904.926-.213 1.922-.32 2.987-.32.685 0 1.34.042 1.967.128.625.085 1.215.204 1.767.356a12.359 12.359 0 0 1 2.813 1.149l-1.003 1.96a8.116 8.116 0 0 0-1.489-.531 6.872 6.872 0 0 0-1.732-.215 5.69 5.69 0 0 0-2.229.43 5.147 5.147 0 0 0-1.774 1.226 5.716 5.716 0 0 0-1.173 1.919c-.284.75-.425 1.592-.425 2.525 0 .926.14 1.764.42 2.514.28.751.666 1.392 1.161 1.926a5.12 5.12 0 0 0 1.761 1.236c.681.292 1.419.437 2.212.437.56 0 1.12-.067 1.68-.204a7.723 7.723 0 0 0 1.541-.542l1.003 1.96c-.38.225-.805.434-1.272.63a13.212 13.212 0 0 1-3.267.876c-.623.085-1.276.127-1.96.127-1.595 0-3.033-.235-4.311-.706-1.281-.47-2.368-1.112-3.262-1.925a8.368 8.368 0 0 1-2.06-2.846 8.495 8.495 0 0 1-.718-3.47"></path></g><g><path fill="#fff" d="M84.207 30.14l8.142-.04 8.513 17.382h-9.607l-1.618-3.5h-8.621l-1.604 3.5H75.69zm3.875 10.474l-2.76-6-2.747 6z"></path></g><g><path fill="#fff" d="M84.207 2.2l8.142-.04 8.513 17.383h-9.607l-1.618-3.5h-8.621l-1.604 3.5H75.69zm3.875 10.475l-2.76-6-2.747 6z"></path></g><g><path fill="#fff" d="M105.97 30.14h7.943c2.236 0 4.174.188 5.811.566 1.639.377 2.995.93 4.07 1.662 1.074.73 1.872 1.63 2.392 2.695.52 1.066.78 2.287.78 3.664 0 1.228-.26 2.373-.78 3.435-.52 1.061-1.318 1.986-2.392 2.776-1.075.79-2.431 1.41-4.07 1.861-1.637.451-3.575.677-5.81.677h-7.944zm6.519 14.792c.865 0 2.638-.12 3.33-.362a4.352 4.352 0 0 0 1.759-1.12c.48-.505.848-1.149 1.104-1.93.255-.782.383-1.717.383-2.806 0-1.081-.13-2.002-.39-2.764s-.632-1.387-1.116-1.873a4.312 4.312 0 0 0-1.759-1.061c-.689-.222-2.45-.333-3.299-.333z"></path></g><g><path fill="#fff" d="M130.72 30.152h7.387l6.052 11.14 5.749-11.14 3.046-.012-8.072 17.348-5.496-.013z"></path></g><g><path fill="#fff" d="M181.29 30.14h4.677l12.184 9.24.013-9.24h2.843v17.336h-4.677l-12.197-9.206v9.206h-2.843z"></path></g><g><path fill="#fff" d="M212.218 32.812h-7.338V30.14h21.42v2.672h-7.338v14.676h-6.744z"></path></g><g><path fill="#fff" d="M231.15 30.01h7.632v11.013c0 .622.094 1.16.283 1.615.19.455.454.832.792 1.131.34.3.738.523 1.196.67.458.149.95.223 1.479.223.58 0 1.102-.074 1.565-.222.46-.148.855-.373 1.181-.677.326-.303.576-.684.752-1.143.177-.459.265-.998.265-1.62V30.01h2.905v10.592c0 1.074-.197 2.041-.587 2.905a6.242 6.242 0 0 1-1.67 2.21c-.723.611-1.595 1.08-2.616 1.407-1.02.326-2.16.49-3.42.49-1.716 0-3.19-.162-4.423-.485-1.232-.322-2.245-.785-3.036-1.388-.793-.603-1.374-1.332-1.744-2.187-.37-.856-.554-1.82-.554-2.894z"></path></g><g><path fill="#fff" d="M256.56 30.14h11.395c1.29 0 2.421.136 3.389.407.969.273 1.777.653 2.427 1.144a4.754 4.754 0 0 1 1.465 1.762c.327.684.49 1.439.49 2.263 0 1.019-.241 1.923-.723 2.712-.483.79-1.198 1.418-2.148 1.885l6.23 7.174h-7.62l-5.342-6.3h-2.818v6.288h-6.745zm7.153 8.946c.552 0 2.44-.078 2.876-.234a3.147 3.147 0 0 0 1.108-.66c.304-.285.537-.623.701-1.017.163-.393.245-.823.245-1.29a3.34 3.34 0 0 0-.245-1.292 2.898 2.898 0 0 0-.7-1.017 3.147 3.147 0 0 0-1.109-.66c-.436-.155-2.324-.233-2.876-.233h-.397l-.011 6.403z"></path></g><g><path fill="#fff" d="M106.08 2.18h11.395c1.291 0 2.421.136 3.39.407.968.273 1.777.653 2.426 1.144a4.76 4.76 0 0 1 1.465 1.762c.327.685.49 1.439.49 2.263 0 1.019-.24 1.923-.723 2.712-.482.79-1.198 1.418-2.147 1.885l6.23 7.174h-7.62l-5.343-6.3h-2.818v6.288h-6.745zm7.153 8.946c.551 0 2.435-.078 2.87-.234a3.148 3.148 0 0 0 1.107-.66c.303-.285.536-.623.699-1.017.163-.393.244-.823.244-1.29 0-.468-.081-.898-.244-1.292a2.911 2.911 0 0 0-.699-1.017 3.147 3.147 0 0 0-1.106-.66c-.436-.155-2.32-.233-2.871-.233h-.396l-.012 6.403z"></path></g><g><path fill="#fff" d="M285.1 30.14h17.843v2.67h-11.086l-.012 4.68h9.231v2.67h-9.231v4.644h11.098v2.672H285.1z"></path></g><g><path fill="#fff" d="M157.38 30.14h17.843v2.67h-11.087l-.011 4.68h9.231v2.67h-9.231v4.644h11.098v2.672H157.38z"></path></g></g></svg>